<?xml version="1.0" encoding="utf-8"?>
<!-- Generator: Adobe Illustrator 15.1.0, SVG Export Plug-In . SVG Version: 6.00 Build 0)  -->
<!DOCTYPE svg PUBLIC "-//W3C//DTD SVG 1.1//EN" "http://www.w3.org/Graphics/SVG/1.1/DTD/svg11.dtd">
<svg version="1.1" id="Layer_1" xmlns="http://www.w3.org/2000/svg" xmlns:xlink="http://www.w3.org/1999/xlink" x="0px" y="0px"
	 width="75px" height="79.833px" viewBox="0 0 75 79.833" enable-background="new 0 0 75 79.833" xml:space="preserve">
<radialGradient id="SVGID_1_" cx="39.1772" cy="69.0249" r="19.8977" gradientTransform="matrix(1.3038 0 0 0.4155 -11.3935 42.9429)" gradientUnits="userSpaceOnUse">
	<stop  offset="0" style="stop-color:#000000"/>
	<stop  offset="1" style="stop-color:#FFFFFF;stop-opacity:0"/>
</radialGradient>
<ellipse fill="url(#SVGID_1_)" cx="39.688" cy="71.626" rx="36.313" ry="8.632"/>
<circle fill="#FFFFFF" cx="37.5" cy="36.313" r="36"/>
<radialGradient id="SVGID_2_" cx="31.167" cy="22.9795" r="36.3125" gradientUnits="userSpaceOnUse">
	<stop  offset="0" style="stop-color:#FFFFFF"/>
	<stop  offset="1" style="stop-color:#2D2E83"/>
</radialGradient>
<path fill="url(#SVGID_2_)" d="M37.5,0C17.445,0,1.188,16.258,1.188,36.313c0,20.055,16.258,36.313,36.313,36.313
	s36.313-16.257,36.313-36.313C73.813,16.258,57.555,0,37.5,0z M37.5,60.521c-13.37,0-24.208-10.839-24.208-24.208
	c0-13.37,10.838-24.208,24.208-24.208c13.369,0,24.208,10.838,24.208,24.208C61.708,49.682,50.869,60.521,37.5,60.521z M37.5,58.584
	c-12.28,0-22.271-9.991-22.271-22.271c0-12.28,9.991-22.271,22.271-22.271s22.271,9.991,22.271,22.271
	C59.771,48.593,49.78,58.584,37.5,58.584z M37.5,15.009c-11.747,0-21.303,9.557-21.303,21.303S25.753,57.616,37.5,57.616
	s21.303-9.557,21.303-21.303S49.247,15.009,37.5,15.009z"/>
</svg>
